<svg xmlns="http://www.w3.org/2000/svg" xmlns:xlink="http://www.w3.org/1999/xlink" version="1.1" width="256" height="256" viewBox="0 0 256 256" xml:space="preserve">
<desc>Created with Fabric.js 1.7.22</desc>
<defs>
</defs>
<g transform="translate(128 128) scale(0.72 0.72)" style="">
	<g style="stroke: none; stroke-width: 0; stroke-dasharray: none; stroke-linecap: butt; stroke-linejoin: miter; stroke-miterlimit: 10; fill: none; fill-rule: nonzero; opacity: 1;" transform="translate(-175.05 -175.05000000000004) scale(3.89 3.89)" >
	<path d="M 50.103 90 h -8.7 C 22.378 90 6.956 69.853 6.956 45 S 22.378 0 41.403 0 l 7.194 0 L 50.103 90 z" style="stroke: none; stroke-width: 1; stroke-dasharray: none; stroke-linecap: butt; stroke-linejoin: miter; stroke-miterlimit: 10; fill: rgb(228,175,24); fill-rule: nonzero; opacity: 1;" transform=" matrix(1 0 0 1 0 0) " stroke-linecap="round" />
	<path d="M 44.555 1.431 H 32.839 c -1.989 0.665 -3.912 1.542 -5.745 2.637 h 11.8 C 40.704 2.987 42.593 2.094 44.555 1.431 z" style="stroke: none; stroke-width: 1; stroke-dasharray: none; stroke-linecap: butt; stroke-linejoin: miter; stroke-miterlimit: 10; fill: rgb(196,146,20); fill-rule: nonzero; opacity: 1;" transform=" matrix(1 0 0 1 0 0) " stroke-linecap="round" />
	<path d="M 33.116 8.454 H 21.315 c -0.971 0.913 -1.906 1.887 -2.798 2.924 h 11.8 C 31.21 10.341 32.145 9.367 33.116 8.454 z" style="stroke: none; stroke-width: 1; stroke-dasharray: none; stroke-linecap: butt; stroke-linejoin: miter; stroke-miterlimit: 10; fill: rgb(196,146,20); fill-rule: nonzero; opacity: 1;" transform=" matrix(1 0 0 1 0 0) " stroke-linecap="round" />
	<path d="M 26.112 17.225 H 14.311 c -0.569 0.946 -1.113 1.919 -1.623 2.924 h 11.8 C 24.999 19.144 25.543 18.171 26.112 17.225 z" style="stroke: none; stroke-width: 1; stroke-dasharray: none; stroke-linecap: butt; stroke-linejoin: miter; stroke-miterlimit: 10; fill: rgb(196,146,20); fill-rule: nonzero; opacity: 1;" transform=" matrix(1 0 0 1 0 0) " stroke-linecap="round" />
	<path d="M 21.978 25.996 H 10.178 c -0.342 0.957 -0.657 1.932 -0.948 2.924 h 11.8 C 21.321 27.928 21.637 26.953 21.978 25.996 z" style="stroke: none; stroke-width: 1; stroke-dasharray: none; stroke-linecap: butt; stroke-linejoin: miter; stroke-miterlimit: 10; fill: rgb(196,146,20); fill-rule: nonzero; opacity: 1;" transform=" matrix(1 0 0 1 0 0) " stroke-linecap="round" />
	<path d="M 19.662 34.767 h -11.8 c -0.172 0.964 -0.323 1.937 -0.446 2.924 h 11.8 C 19.339 36.704 19.491 35.731 19.662 34.767 z" style="stroke: none; stroke-width: 1; stroke-dasharray: none; stroke-linecap: butt; stroke-linejoin: miter; stroke-miterlimit: 10; fill: rgb(196,146,20); fill-rule: nonzero; opacity: 1;" transform=" matrix(1 0 0 1 0 0) " stroke-linecap="round" />
	<path d="M 18.757 45 c 0 -0.49 0.016 -0.975 0.028 -1.462 h -11.8 C 6.973 44.025 6.956 44.51 6.956 45 s 0.016 0.975 0.028 1.462 h 11.8 C 18.773 45.975 18.757 45.49 18.757 45 z" style="stroke: none; stroke-width: 1; stroke-dasharray: none; stroke-linecap: butt; stroke-linejoin: miter; stroke-miterlimit: 10; fill: rgb(196,146,20); fill-rule: nonzero; opacity: 1;" transform=" matrix(1 0 0 1 0 0) " stroke-linecap="round" />
	<path d="M 19.216 52.309 h -11.8 c 0.123 0.986 0.274 1.96 0.446 2.924 h 11.8 C 19.491 54.269 19.339 53.296 19.216 52.309 z" style="stroke: none; stroke-width: 1; stroke-dasharray: none; stroke-linecap: butt; stroke-linejoin: miter; stroke-miterlimit: 10; fill: rgb(196,146,20); fill-rule: nonzero; opacity: 1;" transform=" matrix(1 0 0 1 0 0) " stroke-linecap="round" />
	<path d="M 21.03 61.08 H 9.23 c 0.291 0.992 0.606 1.967 0.948 2.924 h 11.801 C 21.637 63.047 21.321 62.072 21.03 61.08 z" style="stroke: none; stroke-width: 1; stroke-dasharray: none; stroke-linecap: butt; stroke-linejoin: miter; stroke-miterlimit: 10; fill: rgb(196,146,20); fill-rule: nonzero; opacity: 1;" transform=" matrix(1 0 0 1 0 0) " stroke-linecap="round" />
	<path d="M 24.488 69.851 h -11.8 c 0.511 1.005 1.055 1.978 1.623 2.924 h 11.801 C 25.543 71.829 24.999 70.856 24.488 69.851 z" style="stroke: none; stroke-width: 1; stroke-dasharray: none; stroke-linecap: butt; stroke-linejoin: miter; stroke-miterlimit: 10; fill: rgb(196,146,20); fill-rule: nonzero; opacity: 1;" transform=" matrix(1 0 0 1 0 0) " stroke-linecap="round" />
	<path d="M 30.318 78.622 h -11.8 c 0.892 1.037 1.826 2.011 2.798 2.924 h 11.801 C 32.145 80.633 31.21 79.659 30.318 78.622 z" style="stroke: none; stroke-width: 1; stroke-dasharray: none; stroke-linecap: butt; stroke-linejoin: miter; stroke-miterlimit: 10; fill: rgb(196,146,20); fill-rule: nonzero; opacity: 1;" transform=" matrix(1 0 0 1 0 0) " stroke-linecap="round" />
	<path d="M 38.256 85.554 l -11.163 0.378 c 1.856 1.109 3.804 1.994 5.819 2.662 h 11.715 C 42.41 87.851 40.278 86.828 38.256 85.554 z" style="stroke: none; stroke-width: 1; stroke-dasharray: none; stroke-linecap: butt; stroke-linejoin: miter; stroke-miterlimit: 10; fill: rgb(196,146,20); fill-rule: nonzero; opacity: 1;" transform=" matrix(1 0 0 1 0 0) " stroke-linecap="round" />
	<ellipse cx="48.597" cy="45" rx="34.447" ry="45" style="stroke: none; stroke-width: 1; stroke-dasharray: none; stroke-linecap: butt; stroke-linejoin: miter; stroke-miterlimit: 10; fill: rgb(255,217,73); fill-rule: nonzero; opacity: 1;" transform=" matrix(1 0 0 1 0 0) "/>
	<ellipse cx="48.592" cy="45" rx="26.792" ry="35" style="stroke: none; stroke-width: 1; stroke-dasharray: none; stroke-linecap: butt; stroke-linejoin: miter; stroke-miterlimit: 10; fill: rgb(228,175,24); fill-rule: nonzero; opacity: 1;" transform=" matrix(1 0 0 1 0 0) "/>
	<path d="M 62.422 65.846 c -0.416 -1.306 -1.801 -1.928 -3.084 -1.388 c -1.267 0.53 -2.576 0.858 -3.894 0.974 c -6.819 0.601 -12.656 -4.51 -14.939 -12.169 l 13.477 -1.188 c 1.354 -0.119 2.446 -1.357 2.439 -2.765 c -0.006 -1.408 -1.108 -2.453 -2.462 -2.333 l -14.403 1.269 c -0.055 -0.675 -0.087 -1.361 -0.09 -2.059 c -0.002 -0.42 0.026 -0.833 0.043 -1.249 l 14.435 -1.272 c 1.354 -0.119 2.446 -1.357 2.439 -2.765 s -1.108 -2.453 -2.462 -2.333 l -13.708 1.208 c 2.029 -8.47 7.992 -15.011 15.048 -15.633 c 1.316 -0.116 2.629 -0.02 3.901 0.287 c 1.288 0.31 2.666 -0.552 3.069 -1.931 c 0.403 -1.378 -0.318 -2.748 -1.61 -3.06 c -1.752 -0.422 -3.562 -0.555 -5.382 -0.395 c -9.695 0.855 -17.823 9.837 -20.061 21.176 l -4.656 0.41 c -1.354 0.119 -2.446 1.357 -2.439 2.765 s 1.108 2.453 2.462 2.333 l 4.041 -0.356 c -0.014 0.414 -0.022 0.83 -0.02 1.247 c 0.003 0.696 0.035 1.381 0.082 2.059 l -4.089 0.36 c -1.354 0.119 -2.446 1.357 -2.439 2.765 c 0.006 1.408 1.108 2.453 2.462 2.333 l 4.841 -0.427 c 2.56 10.497 10.589 17.653 20.044 16.819 c 1.822 -0.161 3.63 -0.613 5.375 -1.343 C 62.129 68.648 62.837 67.152 62.422 65.846 z" style="stroke: none; stroke-width: 1; stroke-dasharray: none; stroke-linecap: butt; stroke-linejoin: miter; stroke-miterlimit: 10; fill: rgb(255,217,73); fill-rule: nonzero; opacity: 1;" transform=" matrix(1 0 0 1 0 0) " stroke-linecap="round" />
</g>
</g>
</svg>