<?xml version="1.0" encoding="iso-8859-1"?>
<!-- Generator: Adobe Illustrator 19.0.0, SVG Export Plug-In . SVG Version: 6.00 Build 0)  -->
<svg version="1.1" id="Layer_1" xmlns="http://www.w3.org/2000/svg" xmlns:xlink="http://www.w3.org/1999/xlink" x="0px" y="0px"
	 viewBox="0 0 512 512" style="enable-background:new 0 0 512 512;" xml:space="preserve">
<circle style="fill:#FFAD38;" cx="256" cy="256" r="247.83"/>
<g>
	<path style="fill:#D2CFCE;" d="M256,66.996c104.217,0,189.004,84.787,189.004,189.004S360.217,445.004,256,445.004
		S66.996,360.217,66.996,256S151.783,66.996,256,66.996z"/>
	<path style="fill:#D2CFCE;" d="M296.802,71.445L118.627,385.671c5.963,6.314,12.358,12.214,19.132,17.662L321.773,78.809
		C313.695,75.8,305.356,73.334,296.802,71.445z"/>
	<path style="fill:#D2CFCE;" d="M256,66.996c-1.551,0-3.098,0.022-4.642,0.059L91.5,348.98c4.684,8.254,9.963,16.128,15.794,23.552
		L279.699,68.478C271.934,67.502,264.025,66.996,256,66.996z"/>
	<path style="fill:#D2CFCE;" d="M198.356,75.996L71.926,298.967c2.618,11.219,6.247,22.054,10.771,32.412L231.727,68.55
		C220.25,70.027,209.098,72.548,198.356,75.996z"/>
	<path style="fill:#D2CFCE;" d="M126.166,118.777l-54.751,96.56C68.53,228.44,66.996,242.043,66.996,256
		c0,5.781,0.276,11.498,0.787,17.148L174.076,85.689C156.407,94.223,140.265,105.431,126.166,118.777z"/>
</g>
<g>
	<path style="fill:#EBEAEA;" d="M174.076,85.69L67.782,273.148c0.794,8.791,2.182,17.413,4.144,25.819l126.43-222.971
		C189.998,78.679,181.885,81.918,174.076,85.69z"/>
	<path style="fill:#EBEAEA;" d="M231.727,68.55L82.697,331.378c2.635,6.037,5.574,11.911,8.803,17.601L251.358,67.055
		C244.725,67.216,238.176,67.719,231.727,68.55z"/>
	<path style="fill:#EBEAEA;" d="M279.699,68.478L107.292,372.531c3.576,4.555,7.363,8.936,11.334,13.14L296.801,71.445
		C291.189,70.204,285.486,69.205,279.699,68.478z"/>
</g>
<path style="fill:#D2CFCE;" d="M201.845,169.119l-13.596,62.627c100.402,0.589,161.275,57.613,174.386,116.5l18.791-14.797
	C385.207,234.962,281.043,169.119,201.845,169.119z"/>
<polyline style="fill:#A8A2A2;" points="210.553,291.314 120.187,291.314 143.918,291.314 171.009,129.767 151.336,137.378 
	217.644,111.723 186.822,291.314 "/>
<path d="M437.019,74.981C388.668,26.628,324.38,0,256,0S123.332,26.628,74.981,74.981C26.628,123.332,0,187.62,0,256
	s26.628,132.668,74.981,181.019c0.471,0.471,0.953,0.926,1.426,1.391c0.221,0.243,0.455,0.474,0.708,0.691
	C125.217,486.125,188.615,512,256,512c68.38,0,132.668-26.628,181.019-74.981C485.372,388.668,512,324.38,512,256
	S485.372,123.332,437.019,74.981z M373.594,332.963c-1.993,3.038-4.107,6.005-6.334,8.885c-1.128-3.803-2.385-7.546-3.767-11.223
	c3.349-4.808,6.39-9.846,9.08-15.092C373.238,321.255,373.591,327.069,373.594,332.963z M355.52,312.712
	c-22.315-43.036-62.666-74.586-110.187-85.714c-0.461-0.155-0.93-0.26-1.401-0.33c-11.817-2.659-24.067-4.059-36.587-4.059
	c-0.147,0-0.296,0.007-0.443,0.007l6.823-39.755c3.132-0.193,6.278-0.302,9.41-0.302c66.867,0,123.677,43.851,143.207,104.303
	C363.787,295.986,360.13,304.654,355.52,312.712z M153.572,283.144l24.726-147.436l28.855-11.165l-18.087,105.391
	c-0.002,0.013-0.004,0.025-0.007,0.038l-9.126,53.173h-26.363V283.144z M204.09,239.002c1.086-0.023,2.174-0.051,3.255-0.051
	c7.679,0,15.245,0.588,22.652,1.715l-24.087,42.479h-9.396L204.09,239.002z M246.773,244.207
	c43.484,11.824,79.715,42.753,98.085,84.028C323.833,354.05,291.812,370.57,256,370.57c-24.544,0-48.504-7.952-68.133-22.477
	L246.773,244.207z M284.388,177.869l15.673-27.64c42.145,17.553,70.109,58.777,70.49,104.821
	C352.01,220.136,321.437,192.548,284.388,177.869z M268.633,172.527c-14.469-4.108-29.731-6.308-45.498-6.308
	c-2.189,0-4.384,0.057-6.579,0.142l9.14-53.257c0.498-2.9-0.602-5.842-2.879-7.705c-2.276-1.863-5.379-2.358-8.122-1.296
	l-66.307,25.657c-4.208,1.629-6.3,6.36-4.671,10.568c1.628,4.208,6.36,6.3,10.568,4.671l6.295-2.436l-23.576,140.58h-16.818
	c-4.512,0-8.17,3.658-8.17,8.17c0,4.512,3.658,8.17,8.17,8.17h23.728c0.004,0,0.009,0.001,0.013,0.001
	c0.008,0,0.016-0.001,0.023-0.001h42.844c0.013,0,0.025,0.001,0.038,0.001c0.012,0,0.023-0.001,0.036-0.001h9.778l-54.805,96.651
	c-19.745-16.115-36.028-36.31-47.563-59.286c-0.013-0.027-0.026-0.053-0.04-0.081C82.044,312.443,75.166,285.012,75.166,256
	c0-29.488,7.098-57.348,19.67-81.967l7.676-13.538c20.402-32.669,50.927-58.395,87.161-72.731c0.002,0,0.005-0.002,0.009-0.003
	c20.544-8.127,42.92-12.595,66.319-12.595c21.276,0,42.099,3.836,61.619,10.97L268.633,172.527z M92.757,431.292l21.665-38.207
	c6.029,6.224,12.459,12.055,19.256,17.447l-21.159,37.315C105.633,442.685,99.043,437.15,92.757,431.292z M63.424,398.493
	l23.416-41.293c4.833,8.048,10.226,15.723,16.12,22.975l-22.19,39.135C74.61,412.705,68.814,405.759,63.424,398.493z
	 M38.842,357.314L66.123,309.2c3.007,10.716,6.901,21.063,11.593,30.962l-24.565,43.322
	C47.861,375.096,43.078,366.358,38.842,357.314z M21.164,303.958l38.7-68.25c-0.685,6.672-1.038,13.442-1.038,20.292
	c0,9.899,0.742,19.628,2.157,29.14l-30.106,53.094C26.821,327.166,23.562,315.717,21.164,303.958z M210.984,20.599l-30.118,53.115
	c-15.441,6.387-29.903,14.674-43.085,24.58l38.789-68.408C187.692,25.969,199.185,22.85,210.984,20.599z M306.248,21.657
	l-22.225,39.196c-9.243-1.329-18.598-2.025-27.999-2.026l23.439-41.336C288.549,18.378,297.485,19.78,306.248,21.657z
	 M301.002,64.038l21.687-38.246c8.3,2.407,16.413,5.258,24.319,8.516l-21.162,37.32C317.741,68.554,309.441,66.019,301.002,64.038z
	 M261.292,16.408l-24.588,43.364c-11.143,1.087-22.014,3.111-32.54,5.983l27.312-48.167c8.065-0.825,16.246-1.247,24.524-1.247
	C257.77,16.34,259.533,16.369,261.292,16.408z M151.989,40.109L88.404,152.247c-2.838,4.568-5.506,9.253-7.971,14.058
	L17.324,277.602c-0.638-7.119-0.984-14.32-0.984-21.602C16.34,161.098,71.789,78.905,151.989,40.109z M256,495.66
	c-47.893,0-92.543-14.13-130.02-38.427l20.995-37.026c31.249,20.817,68.742,32.968,109.024,32.968
	c108.723,0,197.174-88.452,197.174-197.174c0-23.648-4.176-46.81-12.409-68.84c-1.58-4.227-6.286-6.372-10.513-4.793
	c-4.227,1.58-6.373,6.287-4.793,10.513c7.548,20.195,11.375,41.432,11.375,63.12c0,99.713-81.121,180.834-180.834,180.834
	c-37.355,0-72.1-11.386-100.949-30.868l24.696-43.554c22.127,15.851,48.877,24.499,76.253,24.499
	c37.543,0,71.439-15.891,95.332-41.292c1.085,3.579,2.041,7.216,2.864,10.911c-26.397,25.829-61.097,40.006-98.197,40.006
	c-4.512,0-8.17,3.658-8.17,8.17s3.658,8.17,8.17,8.17c42.954,0,83.029-17.019,112.865-47.922l0,0
	c0.038-0.039,0.076-0.076,0.114-0.115c7.376-7.656,13.994-16.084,19.669-25.052c0.029-0.047,0.052-0.095,0.081-0.143
	c0.093-0.154,0.182-0.309,0.266-0.47c0.045-0.086,0.086-0.171,0.127-0.257c0.072-0.153,0.139-0.306,0.204-0.463
	c0.04-0.1,0.078-0.2,0.114-0.302c0.051-0.144,0.097-0.289,0.141-0.436c0.035-0.118,0.068-0.236,0.096-0.355
	c0.033-0.132,0.061-0.266,0.087-0.401c0.026-0.136,0.049-0.272,0.069-0.409c0.017-0.123,0.032-0.246,0.044-0.37
	c0.014-0.149,0.023-0.297,0.028-0.447c0.002-0.066,0.012-0.131,0.013-0.197c0.012-0.838,0.018-1.677,0.018-2.516
	c0-16.148-2.315-31.763-6.616-46.541c2.342-9.784,3.591-19.988,3.591-30.479c0-52.377-31.266-99.466-78.731-120.088l24.626-43.43
	c32.528,15.349,60.44,40.256,79.204,72.175c2.287,3.89,7.294,5.192,11.184,2.903c3.89-2.287,5.19-7.293,2.903-11.183
	c-17.125-29.131-41.584-53.556-70.736-70.634c-4.699-2.753-9.516-5.279-14.411-7.622l21.004-37.044
	C441.101,80.253,495.66,161.868,495.66,256C495.66,388.149,388.149,495.66,256,495.66z"/>
<g>
</g>
<g>
</g>
<g>
</g>
<g>
</g>
<g>
</g>
<g>
</g>
<g>
</g>
<g>
</g>
<g>
</g>
<g>
</g>
<g>
</g>
<g>
</g>
<g>
</g>
<g>
</g>
<g>
</g>
</svg>
